<?xml version="1.0" ?>
<!-- Uploaded to: SVG Repo, www.svgrepo.com, Generator: SVG Repo Mixer Tools -->
<svg width="800px" height="800px" viewBox="0 0 300 300" id="giraffe" version="1.1" xml:space="preserve" xmlns="http://www.w3.org/2000/svg" xmlns:xlink="http://www.w3.org/1999/xlink">
<g>
<path d="   M62,61.867h60v28H88.013c-7.739,0-16.47-5.734-19.521-12.853L62,61.867z" style="fill-rule:evenodd;clip-rule:evenodd;fill:#FFDD95;stroke:#000000;stroke-width:8;stroke-linecap:round;stroke-linejoin:round;stroke-miterlimit:10;"/>
<path d="   M246,61.867h-60v28h33.987c7.739,0,16.47-5.734,19.521-12.853L246,61.867z" style="fill-rule:evenodd;clip-rule:evenodd;fill:#FFDD95;stroke:#000000;stroke-width:8;stroke-linecap:round;stroke-linejoin:round;stroke-miterlimit:10;"/>
<path d="   M130,39.895c0-5.539,4.439-10.028,10-10.028c5.523,0,10,4.487,10,10.028v25.972h-20V39.895z" style="fill-rule:evenodd;clip-rule:evenodd;fill:#DDDDDD;stroke:#000000;stroke-width:7.7333;stroke-linecap:round;stroke-linejoin:round;stroke-miterlimit:10;"/>
<path d="   M162,39.895c0-5.539,4.439-10.028,10-10.028c5.523,0,10,4.487,10,10.028v25.972h-20V39.895z" style="fill-rule:evenodd;clip-rule:evenodd;fill:#DDDDDD;stroke:#000000;stroke-width:7.7333;stroke-linecap:round;stroke-linejoin:round;stroke-miterlimit:10;"/>
<path d="   M120.793,277.867h66.413l22.63-192.163c1.55-13.165-8.069-23.837-21.495-23.837h-68.684c-13.422,0-23.04,10.712-21.495,23.837   L120.793,277.867z" style="fill-rule:evenodd;clip-rule:evenodd;fill:#FBAD4A;stroke:#000000;stroke-width:8;stroke-linecap:round;stroke-linejoin:round;stroke-miterlimit:10;"/>
<ellipse cx="154" cy="213.867" rx="64" ry="32" style="fill-rule:evenodd;clip-rule:evenodd;fill:#FFDD95;stroke:#000000;stroke-width:8;stroke-linecap:round;stroke-linejoin:round;stroke-miterlimit:10;"/>
<ellipse cx="114" cy="213.867" rx="8" ry="12" style="fill-rule:evenodd;clip-rule:evenodd;fill:#777777;stroke:#000000;stroke-width:8;stroke-linecap:round;stroke-linejoin:round;stroke-miterlimit:10;"/>
<ellipse cx="194" cy="213.867" rx="8" ry="12" style="fill-rule:evenodd;clip-rule:evenodd;fill:#777777;stroke:#000000;stroke-width:8;stroke-linecap:round;stroke-linejoin:round;stroke-miterlimit:10;"/>
<circle cx="130" cy="125.867" r="8" style="fill-rule:evenodd;clip-rule:evenodd;"/>
<circle cx="178" cy="125.867" r="8" style="fill-rule:evenodd;clip-rule:evenodd;"/>
</g>
<g/>
<g/>
<g/>
<g/>
<g/>
<g/>
<g/>
<g/>
<g/>
<g/>
<g/>
<g/>
<g/>
<g/>
<g/>
</svg>