<?xml version="1.0" encoding="iso-8859-1"?>
<!-- Uploaded to: SVG Repo, www.svgrepo.com, Generator: SVG Repo Mixer Tools -->
<svg height="800px" width="800px" version="1.1" id="Layer_1" xmlns="http://www.w3.org/2000/svg" xmlns:xlink="http://www.w3.org/1999/xlink" 
	 viewBox="0 0 512 512" xml:space="preserve">
<g transform="translate(1 1)">
	<path style="fill:#FFFFFF;" d="M381.293,275.48C342.04,294.253,288.28,306.2,229.4,306.2c-122.88,0-221.867-52.053-221.867-110.933
		v71.68c0,59.733,98.987,107.52,221.867,107.52s221.867-47.787,221.867-107.52V244.76C432.493,257.56,409.453,267.8,381.293,275.48
		L381.293,275.48z"/>
	<path style="fill:#0096E6;" d="M229.4,383C100.547,383-1,331.8-1,266.947v-71.68h17.067c0,54.613,99.84,102.4,213.333,102.4
		c55.467,0,108.373-11.093,148.48-29.867l1.707-0.853C406.04,260.12,429.08,249.88,447,237.933l13.653-8.533v38.4
		C459.8,331.8,358.253,383,229.4,383z M16.067,240.493V267.8c0,52.907,97.28,98.133,213.333,98.133s213.333-45.227,213.333-98.987
		v-6.827c-16.213,9.387-35.84,17.067-58.027,23.04c-42.667,20.48-98.133,31.573-155.307,31.573
		C132.973,314.733,50.2,284.013,16.067,240.493z"/>
	<path style="fill:#FFFFFF;" d="M451.267,256.707v10.24c0,59.733-98.987,107.52-221.867,107.52c-67.413,0-128-14.507-168.96-37.547
		c13.653,52.907,106.667,97.28,220.16,97.28c122.88,0,221.867-52.053,221.867-110.933
		C502.467,297.667,482.84,274.627,451.267,256.707L451.267,256.707z"/>
	<path style="fill:#0096E6;" d="M280.6,442.733c-115.2,0-213.333-44.373-228.693-104.107L46.787,319l17.067,10.24
		c41.813,23.04,101.547,36.693,165.547,36.693c116.053,0,213.333-45.227,213.333-98.987V242.2l12.8,6.827
		C492.227,268.653,511,294.253,511,323.267C511,388.973,407.747,442.733,280.6,442.733z M78.36,355.693
		c29.013,40.96,110.933,69.973,202.24,69.973c113.493,0,213.333-47.787,213.333-102.4c0-22.187-17.067-39.253-34.133-51.2
		C455.533,334.36,355.693,383,229.4,383C173.933,383,120.173,372.76,78.36,355.693z"/>
	<path style="fill:#FFFFFF;" d="M493.933,109.933c0,58.88-98.987,110.933-221.867,110.933S50.2,168.813,50.2,109.933
		s98.987-102.4,221.867-102.4S493.933,51.053,493.933,109.933L493.933,109.933z"/>
	<path style="fill:#0096E6;" d="M272.067,229.4c-127.147,0-230.4-53.76-230.4-119.467C41.667,46.787,140.653-1,272.067-1
		s230.4,47.787,230.4,110.933C502.467,175.64,399.213,229.4,272.067,229.4z M272.067,16.067
		c-119.467,0-213.333,40.96-213.333,93.867c0,54.613,99.84,102.4,213.333,102.4S485.4,164.547,485.4,109.933
		C485.4,57.027,391.533,16.067,272.067,16.067z"/>
	<path style="fill:#FFFFFF;" d="M272.067,186.733c-116.907,0-187.733-45.227-187.733-76.8s70.827-68.267,187.733-68.267
		S459.8,78.36,459.8,109.933S388.973,186.733,272.067,186.733L272.067,186.733z"/>
	<path style="fill:#0096E6;" d="M272.067,195.267c-116.053,0-196.267-45.227-196.267-85.333c0-37.547,73.387-76.8,196.267-76.8
		s196.267,39.253,196.267,76.8C468.333,150.04,388.12,195.267,272.067,195.267z M272.067,50.2c-119.467,0-179.2,38.4-179.2,59.733
		c0,23.04,63.147,68.267,179.2,68.267s179.2-45.227,179.2-68.267C451.267,88.6,391.533,50.2,272.067,50.2z"/>
	<path style="fill:#D0E8F9;" d="M330.093,121.88c6.827-1.707,11.093-5.973,9.387-11.093l-1.707-5.12
		c-0.853-4.267-5.973-6.827-11.093-8.533C319,80.92,299.373,74.947,270.36,74.947c-1.707,0-2.56,0-4.267,0
		c-10.24,0-19.627-0.853-27.307-3.413c-3.413-0.853-5.973-2.56-7.68-3.413c-0.853-0.853-2.56,0-2.56,0.853s0,2.56,0,4.267
		c0.853,5.973,0,5.12-6.827,11.947c-3.413,3.413-6.827,7.68-8.533,12.8c-5.973,1.707-10.24,5.12-11.093,8.533l-1.707,5.12
		c-1.707,5.12,2.56,9.387,9.387,11.093c1.707,12.8,10.24,23.893,29.013,29.867l-0.853,8.533c0,2.56-2.56,4.267-5.12,5.973
		l-37.547,11.947c22.187,4.267,46.933,7.68,75.093,7.68c27.307,0,52.053-2.56,73.387-6.827l-36.693-13.653
		c-2.56-0.853-5.12-3.413-5.12-5.973l-0.853-8.533C319,144.92,327.533,133.827,330.093,121.88L330.093,121.88z"/>
	<path style="fill:#0096E6;" d="M270.36,195.267c-26.453,0-52.053-2.56-76.8-7.68l-29.867-5.973L229.4,157.72v-0.853
		c-17.067-7.68-24.747-18.773-27.307-29.013c-4.267-1.707-6.827-4.267-9.387-7.68c-2.56-3.413-2.56-7.68-1.707-11.947l1.707-5.12
		c1.707-5.12,6.827-10.24,13.653-12.8c2.56-4.267,5.12-8.533,8.533-11.947c1.707-1.707,2.56-2.56,3.413-3.413l0,0l0,0
		c0-2.56-0.853-4.267-0.853-5.973V63l5.12-2.56c2.56-1.707,7.68-1.707,11.093,0.853c0,0,1.707,0.853,5.12,2.56
		c5.973,2.56,14.507,3.413,24.747,2.56c1.707,0,2.56,0,4.267,0c21.333,0,49.493,2.56,62.293,23.893
		c6.827,2.56,11.947,7.68,13.653,12.8l1.707,5.12c0.853,4.267,0.853,8.533-1.707,11.947c-1.707,3.413-5.12,5.973-9.387,7.68
		c-2.56,10.24-10.24,21.333-27.307,29.013v0.853l64,23.893l-29.013,5.973C321.56,192.707,295.96,195.267,270.36,195.267z
		 M229.4,176.493c26.453,2.56,54.613,2.56,81.067,0l-5.973-2.56c-5.973-2.56-10.24-6.827-10.24-12.8l-1.707-16.213l6.827-2.56
		c13.653-4.267,21.333-11.947,23.04-23.04l0.853-5.973l5.973-0.853c1.707,0,2.56-0.853,2.56-0.853l-0.853-4.267
		c0-0.853-1.707-1.707-5.973-3.413l-3.413-0.853l-1.707-3.413c-3.413-7.68-12.8-17.067-48.64-17.067c-0.853,0-2.56,0-3.413,0
		c-7.68,0-19.627,0-29.013-3.413c-0.853,2.56-2.56,5.12-5.12,7.68c-0.853,0.853-1.707,1.707-3.413,3.413
		c-2.56,2.56-5.12,5.973-6.827,10.24l-1.707,3.413l-3.413,0.853c-3.413,0.853-5.12,2.56-5.973,3.413l-0.853,4.267
		c0.853,0,1.707,0.853,2.56,0.853l5.973,0.853l0.853,5.973c1.707,11.093,9.387,18.773,23.04,23.04l6.827,2.56l-4.267,15.36
		c-0.853,5.973-5.12,10.24-11.093,12.8L229.4,176.493z M208.92,113.347L208.92,113.347L208.92,113.347z M225.987,74.093
		L225.987,74.093L225.987,74.093z"/>
	<path style="fill:#FFFFFF;" d="M280.6,434.2c-122.88,0-221.867-52.053-221.867-110.933v71.68
		c0,59.733,98.987,107.52,221.867,107.52s221.867-47.787,221.867-107.52v-71.68C502.467,382.147,403.48,434.2,280.6,434.2
		L280.6,434.2z"/>
	<g>
		<path style="fill:#0096E6;" d="M280.6,511c-128.853,0-230.4-51.2-230.4-116.053v-71.68h17.067c0,54.613,99.84,102.4,213.333,102.4
			s213.333-47.787,213.333-102.4H511v71.68C511,459.8,409.453,511,280.6,511z M67.267,368.493V395.8
			c0,52.907,97.28,98.133,213.333,98.133s213.333-45.227,213.333-98.987V367.64C459.8,412.013,377.027,442.733,280.6,442.733
			S101.4,412.013,67.267,368.493z"/>
		<path style="fill:#0096E6;" d="M306.2,510.147c-5.12,0-8.533-3.413-8.533-8.533v-68.267c0-5.12,3.413-8.533,8.533-8.533
			s8.533,3.413,8.533,8.533v68.267C314.733,506.733,311.32,510.147,306.2,510.147z M255,510.147c-5.12,0-8.533-3.413-8.533-8.533
			v-68.267c0-5.12,3.413-8.533,8.533-8.533s8.533,3.413,8.533,8.533v68.267C263.533,506.733,260.12,510.147,255,510.147z
			 M357.4,504.173c-5.12,0-8.533-3.413-8.533-8.533v-69.12c0-5.12,3.413-8.533,8.533-8.533s8.533,3.413,8.533,8.533v69.12
			C365.933,500.76,362.52,504.173,357.4,504.173z M203.8,504.173c-5.12,0-8.533-3.413-8.533-8.533v-69.12
			c0-5.12,3.413-8.533,8.533-8.533c5.12,0,8.533,3.413,8.533,8.533v69.12C212.333,500.76,208.92,504.173,203.8,504.173z
			 M400.067,493.933c-5.12,0-8.533-3.413-8.533-8.533v-69.12c0-5.12,3.413-8.533,8.533-8.533s8.533,3.413,8.533,8.533v69.12
			C408.6,490.52,405.187,493.933,400.067,493.933z M161.133,493.933c-5.12,0-8.533-3.413-8.533-8.533v-69.12
			c0-5.12,3.413-8.533,8.533-8.533c5.12,0,8.533,3.413,8.533,8.533v69.12C169.667,490.52,166.253,493.933,161.133,493.933z
			 M434.2,481.133c-5.12,0-8.533-3.413-8.533-8.533v-69.973c0-5.12,3.413-8.533,8.533-8.533c5.12,0,8.533,3.413,8.533,8.533V472.6
			C442.733,477.72,439.32,481.133,434.2,481.133z M127,481.133c-5.12,0-8.533-3.413-8.533-8.533v-69.973
			c0-5.12,3.413-8.533,8.533-8.533s8.533,3.413,8.533,8.533V472.6C135.533,477.72,132.12,481.133,127,481.133z M468.333,460.653
			c-5.12,0-8.533-3.413-8.533-8.533v-70.827c0-5.12,3.413-8.533,8.533-8.533c5.12,0,8.533,3.413,8.533,8.533v70.827
			C476.867,457.24,473.453,460.653,468.333,460.653z M92.867,460.653c-5.12,0-8.533-3.413-8.533-8.533v-70.827
			c0-5.12,3.413-8.533,8.533-8.533s8.533,3.413,8.533,8.533v70.827C101.4,457.24,97.987,460.653,92.867,460.653z"/>
	</g>
	<path style="fill:#FFFFFF;" d="M272.067,220.867c-122.88,0-221.867-52.053-221.867-110.933v71.68
		c0,59.733,98.987,107.52,221.867,107.52s221.867-47.787,221.867-107.52v-71.68C493.933,168.813,394.947,220.867,272.067,220.867
		L272.067,220.867z"/>
	<g>
		<path style="fill:#0096E6;" d="M272.067,297.667c-128.853,0-230.4-51.2-230.4-116.053v-71.68h17.067
			c0,54.613,99.84,102.4,213.333,102.4S485.4,164.547,485.4,109.933h17.067v71.68C502.467,246.467,400.92,297.667,272.067,297.667z
			 M58.733,155.16v27.307c0,52.907,97.28,98.133,213.333,98.133S485.4,235.373,485.4,181.613v-27.307
			C451.267,198.68,368.493,229.4,272.067,229.4S92.867,198.68,58.733,155.16z"/>
		<path style="fill:#0096E6;" d="M255,382.147c-5.12,0-8.533-3.413-8.533-8.533v-68.267c0-5.12,3.413-8.533,8.533-8.533
			s8.533,3.413,8.533,8.533v68.267C263.533,378.733,260.12,382.147,255,382.147z M203.8,382.147c-5.12,0-8.533-3.413-8.533-8.533
			v-68.267c0-5.12,3.413-8.533,8.533-8.533c5.12,0,8.533,3.413,8.533,8.533v68.267C212.333,378.733,208.92,382.147,203.8,382.147z
			 M306.2,376.173c-5.12,0-8.533-3.413-8.533-8.533v-69.12c0-0.853,0-1.707,0-2.56c-4.267,0.853-8.533-3.413-8.533-8.533V219.16
			c0-5.12,3.413-8.533,8.533-8.533s8.533,3.413,8.533,8.533v68.267c0,0.853,0,1.707,0,2.56c5.12,0,8.533,3.413,8.533,8.533v69.12
			C314.733,372.76,311.32,376.173,306.2,376.173z M152.6,376.173c-5.12,0-8.533-3.413-8.533-8.533v-69.12
			c0-5.12,3.413-8.533,8.533-8.533c5.12,0,8.533,3.413,8.533,8.533v69.12C161.133,372.76,157.72,376.173,152.6,376.173z
			 M348.867,365.933c-5.12,0-8.533-3.413-8.533-8.533v-69.12c0-0.853,0-1.707,0.853-2.56c0-0.853-0.853-1.707-0.853-2.56v-69.12
			c0-5.12,3.413-8.533,8.533-8.533c5.12,0,8.533,3.413,8.533,8.533v69.12c0,0.853,0,1.707-0.853,2.56
			c0,0.853,0.853,1.707,0.853,2.56v69.12C357.4,362.52,353.987,365.933,348.867,365.933z M109.933,365.933
			c-5.12,0-8.533-3.413-8.533-8.533v-69.12c0-5.12,3.413-8.533,8.533-8.533s8.533,3.413,8.533,8.533v69.12
			C118.467,362.52,115.053,365.933,109.933,365.933z M383,353.133c-5.12,0-8.533-3.413-8.533-8.533v-69.973
			c0-5.12,3.413-8.533,8.533-8.533v-63.147c0-5.12,3.413-8.533,8.533-8.533s8.533,3.413,8.533,8.533v69.12
			c0,5.12-3.413,8.533-8.533,8.533v64C391.533,349.72,388.12,353.133,383,353.133z M75.8,353.133c-5.12,0-8.533-3.413-8.533-8.533
			v-69.973c0-5.12,3.413-8.533,8.533-8.533c5.12,0,8.533,3.413,8.533,8.533V344.6C84.333,349.72,80.92,353.133,75.8,353.133z
			 M417.133,332.653c-5.12,0-8.533-3.413-8.533-8.533v-60.587c0-5.12,3.413-8.533,8.533-8.533v-65.707
			c0-5.12,3.413-8.533,8.533-8.533s8.533,3.413,8.533,8.533v69.973c0,5.12-3.413,8.533-8.533,8.533v56.32
			C425.667,329.24,422.253,332.653,417.133,332.653z M41.667,332.653c-5.12,0-8.533-3.413-8.533-8.533v-70.827
			c0-5.12,3.413-8.533,8.533-8.533s8.533,3.413,8.533,8.533v70.827C50.2,329.24,46.787,332.653,41.667,332.653z M246.467,296.813
			c-5.12,0-8.533-3.413-8.533-8.533v-68.267c0-5.12,3.413-8.533,8.533-8.533c5.12,0,8.533,3.413,8.533,8.533v68.267
			C255,293.4,251.587,296.813,246.467,296.813z M195.267,290.84c-5.12,0-8.533-3.413-8.533-8.533v-69.12
			c0-5.12,3.413-8.533,8.533-8.533c5.12,0,8.533,3.413,8.533,8.533v69.12C203.8,287.427,200.387,290.84,195.267,290.84z
			 M152.6,280.6c-5.12,0-8.533-3.413-8.533-8.533v-69.12c0-5.12,3.413-8.533,8.533-8.533c5.12,0,8.533,3.413,8.533,8.533v69.12
			C161.133,277.187,157.72,280.6,152.6,280.6z M118.467,267.8c-5.12,0-8.533-3.413-8.533-8.533v-69.973
			c0-5.12,3.413-8.533,8.533-8.533s8.533,3.413,8.533,8.533v69.973C127,264.387,123.587,267.8,118.467,267.8z M459.8,247.32
			c-5.12,0-8.533-3.413-8.533-8.533V167.96c0-5.12,3.413-8.533,8.533-8.533s8.533,3.413,8.533,8.533v70.827
			C468.333,243.907,464.92,247.32,459.8,247.32z M84.333,247.32c-5.12,0-8.533-3.413-8.533-8.533V167.96
			c0-5.12,3.413-8.533,8.533-8.533s8.533,3.413,8.533,8.533v70.827C92.867,243.907,89.453,247.32,84.333,247.32z"/>
	</g>
	<path style="fill:#D0E8F9;" d="M272.067,289.133c-122.88,0-221.867-47.787-221.867-107.52v-48.64
		C23.747,150.04,7.533,170.52,7.533,194.413c0,58.88,98.987,110.933,221.867,110.933c58.88,0,112.64-11.947,151.893-30.72
		C349.72,284.013,312.173,289.133,272.067,289.133L272.067,289.133z"/>
	<path style="fill:#0096E6;" d="M229.4,314.733C102.253,314.733-1,260.973-1,195.267c0-25.6,16.213-49.493,46.933-69.12l12.8-7.68
		v64c0,52.907,97.28,98.133,213.333,98.133c37.547,0,75.093-5.12,107.52-13.653l5.973,16.213
		C342.893,303.64,287.427,314.733,229.4,314.733z M41.667,150.04c-13.653,11.093-25.6,26.453-25.6,45.227
		c0,54.613,99.84,102.4,213.333,102.4c6.827,0,13.653,0,20.48-0.853c-118.613-5.12-208.213-53.76-208.213-115.2V150.04z"/>
	<path style="fill:#D0E8F9;" d="M445.293,291.693c-23.04,47.787-110.933,82.773-215.893,82.773
		c-39.253,0-75.947-5.12-108.373-13.653c31.573,21.333,86.187,39.253,159.573,39.253c116.907,0,187.733-45.227,187.733-76.8
		C468.333,313.027,460.653,301.933,445.293,291.693L445.293,291.693z"/>
	<path style="fill:#0096E6;" d="M280.6,408.6c-66.56,0-126.293-14.507-163.84-40.107l6.827-15.36
		c32.427,8.533,69.12,13.653,105.813,13.653c98.987,0,186.88-32.427,208.213-77.653l4.267-8.533l8.533,5.973
		c17.067,11.947,26.453,25.6,26.453,38.4C476.867,363.373,396.653,408.6,280.6,408.6z M193.56,381.293
		c23.04,5.973,52.053,10.24,87.04,10.24c116.053,0,179.2-45.227,179.2-68.267c0-5.973-4.267-11.947-11.947-18.773
		C417.133,351.427,330.093,383,229.4,383C217.453,383,205.507,382.147,193.56,381.293z"/>
</g>
</svg>