<?xml version="1.0" encoding="iso-8859-1"?>
<!-- Uploaded to: SVG Repo, www.svgrepo.com, Generator: SVG Repo Mixer Tools -->
<svg version="1.1" id="Layer_1" xmlns="http://www.w3.org/2000/svg" xmlns:xlink="http://www.w3.org/1999/xlink" 
	 viewBox="0 0 511.99 511.99" xml:space="preserve">
<g>
	<polygon style="fill:#E6E9ED;" points="79.296,349.617 501.319,349.617 501.319,494.944 79.296,494.944 28.624,469.835 
		11.734,411.165 37.952,366.509 	"/>
	<rect x="61.733" y="248.075" style="fill:#E6E9ED;" width="407.59" height="72"/>
</g>
<path style="fill:#434A54;" d="M291.323,15.484c0-5.891-4.781-10.656-10.672-10.656c-1.25,0-2.438,0.219-3.547,0.609
	c-12.344,3.828-33.968,19.141-31.765,51.64c0.391,5.64,5.077,9.953,10.64,9.953c0.234,0,0.484-0.016,0.734-0.031
	c5.875-0.391,10.312-5.484,9.922-11.359c-1.594-23.437,15.188-29.328,17.094-29.921l-0.109,0.031l-0.016-0.016
	C288.057,24.453,291.323,20.343,291.323,15.484z"/>
<g>
	<path style="fill:#CCD1D9;" d="M138.653,432.509H74.655c-5.891,0-10.656-4.781-10.656-10.672s4.766-10.672,10.656-10.672h63.998
		c5.891,0,10.672,4.781,10.672,10.672S144.544,432.509,138.653,432.509z"/>
	<path style="fill:#CCD1D9;" d="M383.992,379.165c-5.906,0-10.671,4.781-10.671,10.672s4.765,10.672,10.671,10.672h117.327v-21.344
		H383.992z"/>
	<path style="fill:#CCD1D9;" d="M330.65,432.509H181.325c-5.891,0-10.672-4.781-10.672-10.672s4.781-10.672,10.672-10.672H330.65
		c5.891,0,10.672,4.781,10.672,10.672S336.541,432.509,330.65,432.509z"/>
	<path style="fill:#CCD1D9;" d="M447.992,443.165c-5.906,0-10.672,4.779-10.672,10.67s4.766,10.672,10.672,10.672h53.327v-21.342
		H447.992z"/>
	<path style="fill:#CCD1D9;" d="M266.651,293.839h-85.326c-5.891,0-10.672-4.781-10.672-10.672s4.781-10.656,10.672-10.656h85.326
		c5.891,0,10.672,4.766,10.672,10.656S272.542,293.839,266.651,293.839z"/>
	<path style="fill:#CCD1D9;" d="M426.648,272.51c-5.891,0-10.656,4.766-10.656,10.656s4.766,10.672,10.656,10.672h42.672V272.51
		H426.648z"/>
</g>
<path style="fill:#A0D468;" d="M344.697,64.78c-13.438-17.359-32.843-26.937-54.655-26.937c-10.922,0-22.344,2.343-34.047,6.968
	c-11.718-4.625-23.14-6.968-34.046-6.968c-21.828,0-41.233,9.578-54.671,26.937c-12.469,16.109-19.328,38.453-19.328,62.89
	c0,25.171,9.719,50.953,26.641,70.733c17.109,19.983,39.343,31.437,61.015,31.437c7.016,0,13.843-1.188,20.39-3.547
	c6.531,2.359,13.359,3.547,20.375,3.547l0,0c21.672,0,43.906-11.453,61.015-31.437c16.922-19.781,26.64-45.562,26.64-70.733
	C364.024,103.232,357.15,80.905,344.697,64.78z"/>
<g style="opacity:0.2;">
	<path style="fill:#FFFFFF;" d="M245.324,226.292c-4.859,1.75-9.891,2.859-15.047,3.312c1.781,0.156,3.547,0.234,5.328,0.234
		c5.125,0,10.156-0.641,15.046-1.906C248.854,227.464,247.073,226.933,245.324,226.292z"/>
	<path style="fill:#FFFFFF;" d="M344.697,64.78c-13.438-17.359-32.843-26.937-54.655-26.937c-1.797,0-3.594,0.078-5.422,0.203
		c19.672,1.406,37.062,10.781,49.405,26.733c12.469,16.125,19.328,38.453,19.328,62.89c0,25.171-9.703,50.953-26.641,70.733
		c-15.702,18.343-35.733,29.499-55.687,31.202c1.766,0.156,3.547,0.234,5.344,0.234l0,0c21.672,0,43.906-11.453,61.015-31.437
		c16.922-19.781,26.64-45.562,26.64-70.733C364.024,103.232,357.15,80.905,344.697,64.78z"/>
</g>
<path style="fill:#5D9CEC;" d="M469.32,315.167h-10.672h-10.656H317.526H95.998c-17.655,0-31.999-14.344-31.999-32
	c0-17.641,14.344-32,31.999-32h221.528h130.466h10.656h10.672c5.89,0,10.671-4.766,10.671-10.656c0-5.89-4.781-10.672-10.671-10.672
	h-10.672H95.998c-29.421,0-53.343,23.922-53.343,53.328c0,29.422,23.922,53.344,53.343,53.344h362.65h10.672
	c5.89,0,10.671-4.781,10.671-10.672S475.21,315.167,469.32,315.167z"/>
<path style="fill:#A0D468;" d="M501.319,485.835H226.183H85.327c-35.297,0-64-28.703-64-63.998c0-35.281,28.703-64,64-64h140.856
	h275.136c5.891,0,10.671-4.781,10.671-10.672c0-5.889-4.78-10.654-10.671-10.654H85.327C38.265,336.51,0,374.789,0,421.836
	c0,47.045,38.265,85.326,85.327,85.326h415.992c5.891,0,10.671-4.766,10.671-10.656S507.21,485.835,501.319,485.835z"/>
<path style="fill:#ED5564;" d="M74.655,421.837v31.998c0,3.703,1.922,7.125,5.062,9.078c3.141,1.938,7.062,2.125,10.374,0.469
	l16.562-8.281l16.562,8.281c1.516,0.75,3.141,1.125,4.766,1.125c1.953,0,3.906-0.531,5.608-1.594
	c3.156-1.953,5.062-5.375,5.062-9.078v-31.998H74.655z"/>
</svg>