<?xml version="1.0" encoding="utf-8"?>
<!-- Uploaded to: SVG Repo, www.svgrepo.com, Generator: SVG Repo Mixer Tools -->
<svg width="800px" height="800px" viewBox="-66.13 0 315.112 315.112" xmlns="http://www.w3.org/2000/svg"><defs><style>.a{fill:#aaa;}.b{fill:#211715;}.c{fill:#e2e2e2;}.d{fill:#f4b467;}.e{fill:#ffffff;}</style></defs><path class="a" d="M10.724,274.355a50.634,50.634,0,0,0,4.018,15.22c6.056,14.445,53.427,23.138,78,23.138s71.94-8.693,78-23.138a50.634,50.634,0,0,0,4.018-15.22"/><path class="b" d="M8.324,274.355a58.184,58.184,0,0,0,2.855,12.7,21.956,21.956,0,0,0,3.977,7.454c3.461,3.892,8.436,6.435,13.148,8.459,13.342,5.733,27.916,8.6,42.251,10.493a178.239,178.239,0,0,0,20.156,1.629,151.283,151.283,0,0,0,18.8-.981c14.476-1.549,29.173-4.177,42.872-9.225,5.537-2.041,11.086-4.483,15.687-8.246,4.648-3.8,6.62-9.548,7.912-15.26.524-2.319.861-4.671,1.166-7.027a2.411,2.411,0,0,0-2.4-2.4,2.461,2.461,0,0,0-2.4,2.4,52.7,52.7,0,0,1-2.808,11.764A19.85,19.85,0,0,1,168,289.657q-.173.288-.363.564c-.089.131-.511.685-.137.211-.3.38-.617.744-.95,1.094-.353.371-.724.726-1.1,1.067-.2.179-.4.353-.608.524-.106.088-.212.173-.318.26-.345.283.132-.1-.091.075a33.9,33.9,0,0,1-3.066,2.053,57.047,57.047,0,0,1-7.189,3.563c-12.724,5.225-26.621,7.983-40.218,9.723a176.333,176.333,0,0,1-19.191,1.5,149.808,149.808,0,0,1-18.179-.915c-13.839-1.439-27.834-4.021-40.976-8.671-5.087-1.8-10.24-3.921-14.647-7.32.346.266-.14-.118-.246-.206-.207-.17-.412-.345-.613-.523-.408-.361-.8-.738-1.179-1.133-.333-.35-.651-.715-.95-1.094.328.415-.027-.05-.138-.211q-.189-.276-.363-.564a33.495,33.495,0,0,1-3.275-9.2,60.292,60.292,0,0,1-1.075-6.1,2.478,2.478,0,0,0-2.4-2.4,2.413,2.413,0,0,0-2.4,2.4Z"/><path class="c" d="M11.267,33.6C2.406,44.438,2.406,61.526,2.406,74.71c0,15.939,1.225,150.161,1.225,160.651,0,10.387-.008,16.317,1.573,24.285s4.929,15.769,10.657,21.53c5.224,5.255,24.781,18.3,76.309,19.861,51.539-1.556,71.1-14.606,76.322-19.861,5.727-5.761,9.075-13.561,10.656-21.53a74.122,74.122,0,0,0,1.205-8.605v-2.763c0-8.641-.259-154.158-.259-166.165a162.663,162.663,0,0,0-2-26.138c-1.495-9.2-4.158-19.645-10.575-26.505"/><path class="b" d="M9.57,31.906c-9.832,12.2-9.6,29.13-9.563,44,.016,6.383.069,12.767.115,19.151q.114,15.766.245,31.532.15,18.519.306,37.036.145,17.6.291,35.2.108,13.234.208,26.469c.054,7.506-.123,15.051.224,22.545.636,13.721,4.343,28.9,15.8,37.627,6.49,4.94,14.4,8.045,22.13,10.427,15.47,4.767,31.829,6.622,47.945,7.364a176.3,176.3,0,0,0,29.96-1.688,176.989,176.989,0,0,0,22.429-4.158c8.869-2.306,17.944-5.431,25.6-10.59,11.034-7.436,15.758-20.418,17.236-33.2.6-5.194.247-10.65.239-15.876q-.018-12.806-.04-25.61-.029-16.971-.056-33.941l-.06-36.179q-.027-16.179-.052-32.358Q182.515,98.6,182.5,87.56c-.014-12.049-.426-24.064-2.752-35.93-1.68-8.568-4.51-17.314-10.532-23.857-2.1-2.278-5.484,1.123-3.394,3.394,5.914,6.425,8.207,15.431,9.682,23.811a159.628,159.628,0,0,1,2.191,27.588q0,7.621.019,15.242.021,13.957.044,27.913.027,17.316.056,34.632.03,17.632.059,35.264.024,15.124.049,30.249.015,9.569.029,19.138c0,2.077.1,4.2-.017,6.271-.517,8.894-3.194,18.5-8.788,25.566a27.454,27.454,0,0,1-3.848,4c-.215.181-.438.353-.654.533-.377.313.19-.141.087-.064-.142.105-.281.213-.423.318-.516.384-1.044.754-1.579,1.112a61.394,61.394,0,0,1-9.607,5.12c-.548.24-.118.055-.437.187q-.364.151-.729.3-.866.351-1.737.684-1.812.692-3.649,1.311c-2.793.943-5.625,1.771-8.48,2.506A169.538,169.538,0,0,1,116.2,296.89a176.651,176.651,0,0,1-29.677,1.525,230.028,230.028,0,0,1-26.826-2.745,146.44,146.44,0,0,1-19.616-4.576,79.753,79.753,0,0,1-12.857-5.105c-1.542-.782-3.054-1.624-4.518-2.544q-.912-.575-1.8-1.191-.386-.27-.765-.549c-.112-.083-.222-.168-.334-.25-.509-.374.18.151-.012-.008a33.544,33.544,0,0,1-9.389-12.832c-4.9-11.438-4.321-24.062-4.388-36.229q-.056-10.021-.146-20.043-.125-15.837-.259-31.676-.151-18.266-.3-36.532-.143-17.243-.279-34.486-.1-12.981-.187-25.962c-.054-8.829-.322-17.724.577-26.516C6.2,49.54,8.045,41.4,12.964,35.3a2.472,2.472,0,0,0,0-3.394,2.417,2.417,0,0,0-3.394,0Z"/><path class="a" d="M89.78,2.407C71.731,2.407,10.5,4.865,10.5,30.417,10.5,48.1,70.36,48.1,89.008,48.1c22.638,0,78.51-2.971,78.51-18.634C167.518,1.234,109.879,2.407,89.78,2.407Z"/><path class="b" d="M89.78.007A252.4,252.4,0,0,0,56.662,2.145,151.268,151.268,0,0,0,36.388,6.068a64.5,64.5,0,0,0-16.933,6.92c-4.44,2.756-8.371,6.452-10.278,11.41-1.7,4.413-1.483,9.229,1.638,12.906,3.17,3.735,8.265,5.714,12.8,7.151A109.319,109.319,0,0,0,42.9,48.311a330.6,330.6,0,0,0,39.38,2.175c11.966.082,23.919-.224,35.848-1.221,7.546-.631,15.091-1.5,22.545-2.85a84.319,84.319,0,0,0,18.636-5.2c4.1-1.781,8.5-4.423,10.115-8.84.835-2.29.515-4.969.044-7.3a19.141,19.141,0,0,0-3-7.02c-3.2-4.618-7.988-7.821-13.066-10.062a79.55,79.55,0,0,0-18.693-5.338C122.074.472,109.205.026,96.408,0,94.2,0,91.99.006,89.78.007c-3.088,0-3.093,4.8,0,4.8,11.18,0,22.359.027,33.5,1.124a118.138,118.138,0,0,1,18.944,3.242c5.612,1.491,10.461,3.2,15.206,6.531a12.436,12.436,0,0,1,1.186.892c.474.389.935.795,1.378,1.219s.852.846,1.25,1.295c.175.2.345.4.513.6,0,0,.4.507.178.219-.2-.259.129.176.165.227a20.577,20.577,0,0,1,1.8,3.1c.237.5-.058-.222.169.417.087.247.179.493.26.742a17.278,17.278,0,0,1,.487,1.832c.062.3.115.6.164.9.075.462.01.067,0-.023.016.138.033.277.045.415a17.536,17.536,0,0,1,.092,2.062c-.006.176-.034.356-.033.531,0-.722.041-.189-.03.076-.077.289-.547,1.44-.2.739a10.487,10.487,0,0,1-.556,1.014c-.116.178-.24.349-.365.52.366-.5-.012,0-.184.189a12.3,12.3,0,0,1-.99.974c-.162.143-.33.279-.5.418-.32.268.041-.029.092-.068q-.2.154-.412.3a23.634,23.634,0,0,1-2.843,1.716c-.539.28-1.088.544-1.642.794-.257.116-.515.23-.774.34.4-.168-.478.19-.636.252a69.208,69.208,0,0,1-8.456,2.637,157.94,157.94,0,0,1-20.152,3.5A335.6,335.6,0,0,1,88.706,45.7c-11.521,0-23.048-.184-34.539-1.066a174.127,174.127,0,0,1-19.616-2.444,87.354,87.354,0,0,1-8.672-2.064c-1.312-.392-2.612-.824-3.89-1.315-.261-.1-.52-.2-.78-.309-.428-.172-.081-.032,0,0q-.233-.1-.464-.2-.851-.377-1.679-.8A22.793,22.793,0,0,1,16.3,35.845c-.178-.126-.6-.458-.181-.122-.21-.167-.419-.337-.621-.514a12.725,12.725,0,0,1-.992-.965c-.15-.164-.289-.336-.435-.5.129.148.168.268-.1-.147-.228-.355-.426-.716-.633-1.081-.317-.559.08.369-.055-.116-.054-.2-.135-.384-.19-.579-.05-.175-.086-.352-.129-.528-.028-.11-.033-.226-.061-.335-.07-.272.006.575.026.16.023-.482-.037-.973-.013-1.459.013-.281.043-.56.064-.841.006-.085.061-.485.013-.14-.051.373.043-.243.057-.315.1-.5.208-1,.352-1.5q.114-.389.248-.769c.05-.14.106-.279.156-.42.154-.43-.125.266,0,0a16.813,16.813,0,0,1,1.656-2.9c.089-.125.533-.693.18-.252q.263-.329.538-.648.594-.686,1.246-1.318c.4-.389.813-.762,1.239-1.123q.345-.293.7-.574c.072-.057.361-.273,0,0,.165-.124.33-.247.5-.368a35.444,35.444,0,0,1,3.24-2.08c1.185-.677,2.4-1.294,3.643-1.866q.482-.222.967-.434c.181-.079.363-.159.546-.236-.1.041-.359.149.09-.036q1.014-.417,2.042-.8A107.589,107.589,0,0,1,48.943,8.165,228.4,228.4,0,0,1,84.1,4.877q2.838-.067,5.676-.07C92.869,4.806,92.874.006,89.78.007Z"/><path class="b" d="M123.314,17.333c7.915.519,15.633,2.135,22.562,6.139,2.68,1.548,5.1-2.6,2.423-4.145-7.679-4.437-16.216-6.219-24.985-6.794a2.4,2.4,0,1,0,0,4.8Z"/><path class="b" d="M12.1,66.408c6.957,3.39,14.755,4.87,22.358,5.967a300.891,300.891,0,0,0,31.879,2.587c22.981.847,46.223,1.214,68.921-3.016,11.4-2.124,22.765-5.368,33.038-10.84,2.727-1.453.305-5.6-2.423-4.145-8.795,4.685-18.46,7.577-28.179,9.621a196.044,196.044,0,0,1-32.082,3.833c-11.556.488-23.176.23-34.734-.1-10.617-.307-21.255-.839-31.8-2.123A127.6,127.6,0,0,1,25,65.756a52.516,52.516,0,0,1-10.481-3.493,2.463,2.463,0,0,0-3.284.861,2.423,2.423,0,0,0,.861,3.284Z"/><path class="c" d="M114.27,34.635c1.629-1.241,2.945-6.038,1.523-8.936s-4.462-4.733-7.6-5.481-6.751-.1-9.973.1c-6.857.41-10.412.111-16.7.52-1.521.1-3.228,1.084-3.238,2.608-.021,2.963-2.4,10.177-3.545,13.716"/><path class="b" d="M115.967,36.332a9.1,9.1,0,0,0,2.615-5.409,10.11,10.11,0,0,0-1.172-7.241c-2.935-4.6-8.507-6.406-13.732-6.19-2.814.116-5.611.461-8.428.567-2.466.092-4.934.1-7.4.138s-5.221-.159-7.623.419a5.428,5.428,0,0,0-4.358,5.236c-.008.151-.024.3-.041.454.047-.427-.065.393-.064.388-.094.542-.209,1.081-.332,1.617-.267,1.168-.581,2.325-.911,3.476-.649,2.26-1.374,4.5-2.095,6.733-.951,2.947,3.682,4.209,4.628,1.276,1.105-3.423,2.252-6.852,3.043-10.365.167-.743.31-1.49.416-2.245.057-.406.117-.814.147-1.223.042-.563.172-.474-.1-.235a2.65,2.65,0,0,1,1.847-.547q1.706-.1,3.415-.143c4.275-.116,8.554-.05,12.823-.351,4.377-.309,8.948-1.176,12.785,1.537A5.453,5.453,0,0,1,114,28.57c.016,1.6-.453,3.555-1.425,4.368a2.418,2.418,0,0,0,0,3.394,2.452,2.452,0,0,0,3.394,0Z"/><path class="b" d="M101.2,30.55a36.171,36.171,0,0,1-3.91-.1q-.144-.015-.288-.033l.352.045a3.21,3.21,0,0,0-.561-.1,7.939,7.939,0,0,1-.933-.254c-.274-.1-.33-.253.078.045-.133-.1-.318-.154-.461-.239a3.5,3.5,0,0,0-.32-.209q.472.377.19.138c-.063-.056-.123-.114-.182-.175l.618,1.059c-.061-.324.047.729.044.3,0-.1,0-.209,0-.314a1.169,1.169,0,0,0,.008-.144c-.028-.256-.026.474-.058.392-.039-.1.077-.289.088-.4.008-.074.129-.323-.052.1-.17.391-.072.146-.016.06.229-.352-.243.281-.143.173.182-.2-.5.317-.258.193.216-.11-.406.154-.345.134.1-.032.28-.051-.106,0-.469.057-.039.021.07.021,1.572-.011,3.146.012,4.718.022q1.2.008,2.4.013l1.11,0c.15,0,.3,0,.448,0a1.8,1.8,0,0,0,.22,0c.242-.025-.6-.091-.378-.048.4.078-.528-.293-.259-.123s-.5-.423-.282-.212c-.567-.542-.353-.507-.268-.334.046.092-.251-.64-.18-.429.121.364-.015-.706-.035-.31s.158-.6.053-.308a2.281,2.281,0,0,0-.062.233c-.1.415.137-.269.094-.212-.072.095-.119.224-.184.325-.026.04-.057.08-.081.121-.155.279.2-.251.2-.245-.025.094-.208.238-.278.308-.1.1-.227.184-.318.289-.02.024.467-.326.269-.208-.079.047-.152.107-.23.156-.127.08-.261.146-.393.218-.306.168.56-.179.1-.049-.146.041-.309.068-.451.117-.212.074.354-.041.345-.042a3.147,3.147,0,0,0-.362.019,2.4,2.4,0,0,0,0,4.8,6.422,6.422,0,0,0,5.9-4.242,3.546,3.546,0,0,0-.76-3.647c-1.091-1.072-2.552-.98-3.963-.985-1.384,0-2.769-.016-4.153-.024q-.954-.006-1.908-.009a11.533,11.533,0,0,0-2.335.1,3.847,3.847,0,0,0-2.836,3.144,5.3,5.3,0,0,0-.013,2.18,3.651,3.651,0,0,0,1.814,2.126c2.408,1.525,5.522,1.361,8.255,1.357a2.4,2.4,0,0,0,0-4.8Z"/><path class="b" d="M43.241,25.682c3.688-1.106,15.471-3,21.8-2.232,1.613.2,2.263,2.256,1.564,4.814-1.082,3.961-1.377,4.838-3.537,8.036-4.745-.052-16.948-.284-23.778-1.606a3.533,3.533,0,0,1-1.991-1.827c-.735-1.313.005-3.141.934-4.246A11.185,11.185,0,0,1,43.241,25.682Z"/><path class="b" d="M43.88,28a65.593,65.593,0,0,1,16.28-2.3,35.617,35.617,0,0,1,4.2.086c.411.037.425-.123.158-.03-.343.121.041-.417-.055.049-.041.2.014.981-.075,1.428a20.04,20.04,0,0,1-3.394,7.863L63.063,33.9c-5.355-.06-10.717-.217-16.056-.647-1.457-.118-2.913-.254-4.362-.439-.847-.108-2.309-.066-2.949-.641a.994.994,0,0,1-.289-.693,2.446,2.446,0,0,1,.755-1.425A8.411,8.411,0,0,1,43.88,28c2.937-.922,1.682-5.558-1.277-4.628-3.211,1.008-6.371,2.841-7.6,6.14a5.726,5.726,0,0,0,4.213,7.605,122.368,122.368,0,0,0,17.651,1.459q1.815.055,3.632.09c1.137.021,2.768.3,3.78-.29,1.079-.631,1.87-2.332,2.453-3.405a19.773,19.773,0,0,0,1.481-3.588c.888-2.853,2.034-6.666-.41-9.109-1.875-1.873-5.541-1.454-7.977-1.366a88.752,88.752,0,0,0-10.04,1.018A54.093,54.093,0,0,0,42.6,23.368C39.646,24.237,40.905,28.871,43.88,28Z"/><path class="b" d="M31.244,17.727a14.091,14.091,0,0,0-7.862,5.344c-1.253,1.877-2.143,4.812-1.407,7.042.951,2.882,4.409,4.152,7.026,4.971a73.125,73.125,0,0,0,12.744,2.421c5.365.674,10.762,1.085,16.159,1.4,10.489.606,21,.819,31.508.833a311.318,311.318,0,0,0,34.613-2,158.684,158.684,0,0,0,17.712-2.759,67.128,67.128,0,0,0,7.364-2.1c2.671-.939,5.635-2.124,7.485-4.372a6.547,6.547,0,0,0,1.567-4.044c.107-3.09-4.693-3.085-4.8,0a1.1,1.1,0,0,1-.186.625,4.513,4.513,0,0,1-.894.966,13.5,13.5,0,0,1-2.919,1.619,49.714,49.714,0,0,1-7.061,2.238,121.162,121.162,0,0,1-15.441,2.7A318.845,318.845,0,0,1,92.9,34.916c-9.438.136-18.9-.089-28.33-.484-9.742-.408-19.7-.911-29-2.7a48.561,48.561,0,0,1-5.2-1.253q-1.018-.315-2.007-.713c.615.248-.166-.084-.375-.188-.258-.13-.513-.268-.759-.419-.307-.19-.7-.632-.239-.133a4.036,4.036,0,0,0-.49-.462c-.32-.238.226.277.139.191a.753.753,0,0,1-.143-.226c-.185-.534.157.6.015-.012-.053-.231-.06.519.044.314.085-.167,0-.567.023-.761a5.736,5.736,0,0,1,.369-1.533,6.046,6.046,0,0,1,1.988-2.473,11.533,11.533,0,0,1,3.59-1.712c2.943-.908,1.688-5.543-1.276-4.629Z"/><path class="d" d="M92.643,116.122C75.4,116.122,16.9,121.414,16.9,154.3c0,27.712,57.189,33.415,75,33.415,21.627,0,75-9.616,75-34.157C166.909,118.912,111.843,116.122,92.643,116.122Z"/><path class="b" d="M92.643,113.722a159.515,159.515,0,0,0-32.149,3.488c-12.527,2.6-25.761,6.739-35.579,15.29a29.938,29.938,0,0,0-9.457,14.486,23.794,23.794,0,0,0,1.5,17.254c2.679,5.15,7.354,9.054,12.257,12a77.656,77.656,0,0,0,18.26,7.595,167.473,167.473,0,0,0,37.846,6.091A139.166,139.166,0,0,0,120,186.96a137.07,137.07,0,0,0,21.123-5.861,67.424,67.424,0,0,0,18.115-9.6c4.42-3.455,8.316-8.071,9.582-13.662,1.37-6.051-.019-12.864-2.853-18.3-5.906-11.33-18.626-17.244-30.347-20.6-11.861-3.4-24.335-4.731-36.638-5.116q-3.168-.1-6.337-.1c-3.089,0-3.094,4.8,0,4.8q7.074,0,14.139.5a147.408,147.408,0,0,1,17.51,2.193,95.354,95.354,0,0,1,18.342,5.195c.6.245.977.406,1.746.755q1.08.489,2.139,1.019,1.968.987,3.849,2.135a32.763,32.763,0,0,1,6.559,5.073,23.916,23.916,0,0,1,4.788,6.371,17.657,17.657,0,0,1,1.477,3.434,28.591,28.591,0,0,1,1.042,4.3,5.32,5.32,0,0,1,.095.717q.055.5.093,1.01c.064.847.1,1.7.085,2.55a16.924,16.924,0,0,1-.125,1.842c.067-.54-.042.209-.07.36q-.093.493-.216.98a16.633,16.633,0,0,1-.535,1.721c-.047.126-.1.25-.144.375-.231.6.134-.288-.031.075-.139.307-.282.612-.436.913q-.42.82-.916,1.6c-.167.264-.341.523-.519.779-.1.149-.648.876-.379.531-3.644,4.676-8.386,7.613-13.737,10.272a101.709,101.709,0,0,1-19.31,6.953,140.089,140.089,0,0,1-36.611,5.149,161.685,161.685,0,0,1-32.554-3.594,112.826,112.826,0,0,1-18.867-5.49c-1.335-.533-2.519-1.05-3.994-1.762-1.365-.66-2.707-1.367-4.014-2.134-1.215-.714-2.4-1.478-3.543-2.305-.708-.513-.644-.461-1.306-1.006q-.808-.664-1.573-1.381A19.211,19.211,0,0,1,21.2,162q-.239-.447-.453-.9c-.064-.137-.355-.83-.162-.352a18.715,18.715,0,0,1-.63-1.815q-.256-.883-.424-1.791c-.026-.143-.152-1.038-.087-.491-.042-.349-.074-.7-.1-1.05a20.35,20.35,0,0,1,.929-7.976,17.206,17.206,0,0,1,1.31-3.309,26.075,26.075,0,0,1,2.1-3.462c.081-.112.6-.809.352-.485.181-.233.368-.463.557-.69q.716-.858,1.492-1.664a35.855,35.855,0,0,1,3.02-2.786,38.289,38.289,0,0,1,3.217-2.35q1.881-1.242,3.866-2.318a79.281,79.281,0,0,1,17.171-6.685,144.911,144.911,0,0,1,18.613-3.8c.142-.02.966-.133.558-.079q.533-.07,1.065-.138,1.1-.141,2.208-.267,2.053-.236,4.112-.423,3.591-.327,7.193-.5c1.845-.087,3.691-.141,5.538-.143C95.731,118.52,95.736,113.72,92.643,113.722Z"/><path class="b" d="M24.469,187.3c8.415,6.423,19.328,9.232,29.468,11.579,3.006.695,4.29-3.932,1.276-4.629-9.781-2.263-20.2-4.9-28.322-11.1a2.413,2.413,0,0,0-3.283.861,2.46,2.46,0,0,0,.861,3.284Z"/><path class="b" d="M145.977,115.954a67.181,67.181,0,0,1,10.838,6.2,2.409,2.409,0,0,0,3.283-.861,2.463,2.463,0,0,0-.861-3.283,67.1,67.1,0,0,0-10.837-6.2,2.459,2.459,0,0,0-3.284.861,2.43,2.43,0,0,0,.861,3.284Z"/><path class="b" d="M27.618,122.635C39.3,113.782,53.86,109.706,68.185,107.7a176.781,176.781,0,0,1,39.024-.9,133.24,133.24,0,0,1,29.663,5.657c2.948.946,4.211-3.687,1.276-4.629-15.879-5.095-32.862-6.689-49.478-6.417-13.613.223-27.428,1.7-40.471,5.742a74.39,74.39,0,0,0-23,11.342,2.478,2.478,0,0,0-.861,3.283,2.416,2.416,0,0,0,3.284.861Z"/><path class="b" d="M43.2,167.956a2.554,2.554,0,0,1-2.507-2.508v-27.1a2.554,2.554,0,0,1,2.507-2.508h5.852q7.216,0,10.428,2a6.614,6.614,0,0,1,3.213,6.006,6.4,6.4,0,0,1-1.761,4.554,8.322,8.322,0,0,1-4.8,2.4c-.029,0-.044.029-.044.088,0,.029.029.044.088.044a9.25,9.25,0,0,1,5.544,2.552,6.908,6.908,0,0,1,2.024,5.016q0,4.884-3.322,7.172t-10.934,2.288Zm4.84-26.048V148.2c0,.235.133.352.4.352h1.056a10.222,10.222,0,0,0,4.928-.88,3.289,3.289,0,0,0,.264-5.324,7.652,7.652,0,0,0-4.135-.836H48.435A.35.35,0,0,0,48.039,141.908Zm0,12.408v7.568a.35.35,0,0,0,.4.4h2.244a7.722,7.722,0,0,0,4.6-1.078,4.049,4.049,0,0,0,1.429-3.454,3.153,3.153,0,0,0-1.518-2.9,10.3,10.3,0,0,0-5.082-.924H48.435A.35.35,0,0,0,48.039,154.316Z"/><path class="b" d="M70.919,167.956a2.335,2.335,0,0,1-1.738-.748,2.444,2.444,0,0,1-.726-1.76v-27.1a2.444,2.444,0,0,1,.726-1.76,2.335,2.335,0,0,1,1.738-.748H86.5a2.335,2.335,0,0,1,1.738.748,2.444,2.444,0,0,1,.726,1.76v1.012a2.444,2.444,0,0,1-.726,1.76,2.335,2.335,0,0,1-1.738.748H76.287a.311.311,0,0,0-.352.351v5.809q0,.4.352.4h9.328a2.337,2.337,0,0,1,1.738.748,2.444,2.444,0,0,1,.726,1.76v.66a2.444,2.444,0,0,1-.726,1.76,2.337,2.337,0,0,1-1.738.748H76.287a.311.311,0,0,0-.352.352v7.128a.311.311,0,0,0,.352.352H86.5a2.335,2.335,0,0,1,1.738.748,2.444,2.444,0,0,1,.726,1.76v1.012a2.444,2.444,0,0,1-.726,1.76,2.335,2.335,0,0,1-1.738.748Z"/><path class="b" d="M97.671,167.956a2.337,2.337,0,0,1-1.739-.748,2.443,2.443,0,0,1-.725-1.76v-27.1a2.443,2.443,0,0,1,.725-1.76,2.337,2.337,0,0,1,1.739-.748h15.575a2.337,2.337,0,0,1,1.739.748,2.449,2.449,0,0,1,.726,1.76v1.012a2.449,2.449,0,0,1-.726,1.76,2.337,2.337,0,0,1-1.739.748H103.038a.31.31,0,0,0-.351.351v5.809c0,.264.116.4.351.4h9.328a2.339,2.339,0,0,1,1.739.748,2.443,2.443,0,0,1,.725,1.76v.66a2.443,2.443,0,0,1-.725,1.76,2.339,2.339,0,0,1-1.739.748h-9.328a.31.31,0,0,0-.351.352v7.128a.31.31,0,0,0,.351.352h10.208a2.337,2.337,0,0,1,1.739.748,2.449,2.449,0,0,1,.726,1.76v1.012a2.449,2.449,0,0,1-.726,1.76,2.337,2.337,0,0,1-1.739.748Z"/><path class="b" d="M124.466,167.956a2.555,2.555,0,0,1-2.508-2.508v-27.1a2.555,2.555,0,0,1,2.508-2.508h7.172q7.347,0,10.648,2.266a7.787,7.787,0,0,1,3.3,6.886,8.715,8.715,0,0,1-1.716,5.258,9.427,9.427,0,0,1-4.488,3.365.039.039,0,0,0-.044.045.078.078,0,0,0,.088.088q2.156,1.232,3.652,5.192l2.508,6.688a1.755,1.755,0,0,1-1.628,2.332h-2.684a3.48,3.48,0,0,1-2.068-.66,3.371,3.371,0,0,1-1.276-1.716l-2.2-6.336a5.113,5.113,0,0,0-1.5-2.509,4.564,4.564,0,0,0-2.728-.659h-1.848q-.352,0-.352.4v8.976a2.555,2.555,0,0,1-2.508,2.508Zm4.84-26.048v8.272c0,.263.117.4.352.4h2.112a7.5,7.5,0,0,0,4.708-1.276,4.274,4.274,0,0,0,1.628-3.565,3.709,3.709,0,0,0-1.386-3.211,8.085,8.085,0,0,0-4.642-1.012h-2.42Q129.306,141.512,129.306,141.908Z"/><path class="b" d="M161.7,259.572c-5.8,2.021-11.587,4.079-17.507,5.735a175.435,175.435,0,0,1-25.205,5.013,221.361,221.361,0,0,1-56.53-.275c-3.736-.491-7.468-1.1-11.14-1.954-1.461-.338-2.916-.715-4.343-1.18-.575-.188-1.142-.4-1.706-.616-.328-.127.4.2-.221-.1-.232-.114-.463-.225-.689-.347-2.718-1.47-5.144,2.672-2.423,4.144a29,29,0,0,0,6.68,2.385c3.268.832,6.6,1.424,9.929,1.926a227.333,227.333,0,0,0,26.636,2.326,203.26,203.26,0,0,0,57.306-5.888c6.954-1.8,13.712-4.177,20.489-6.538a2.459,2.459,0,0,0,1.676-2.952,2.421,2.421,0,0,0-2.952-1.676Z"/><path class="e" d="M160.053,87.931a6.071,6.071,0,0,0-5.678.509c-3.536,2.5-3.078,8.979,1.122,10.643,4.536,1.639,9.4-2.587,8.425-6.965A6.074,6.074,0,0,0,160.053,87.931Z"/><path class="e" d="M140.795,215.34a10.4,10.4,0,0,1,9.728.871c6.06,4.289,5.276,15.386-1.921,18.238-7.773,2.808-16.109-4.434-14.437-11.935A10.4,10.4,0,0,1,140.795,215.34Z"/><path class="e" d="M75.662,208.955a8.566,8.566,0,0,1,8.009.717c4.989,3.531,4.343,12.666-1.582,15.014-6.4,2.312-13.261-3.65-11.884-9.825A8.562,8.562,0,0,1,75.662,208.955Z"/><path class="e" d="M38.013,227.478a6.071,6.071,0,0,1,5.678.509c3.537,2.5,3.079,8.979-1.121,10.644-4.537,1.638-9.4-2.588-8.425-6.966A6.07,6.07,0,0,1,38.013,227.478Z"/><path class="e" d="M31.917,85.931a7.715,7.715,0,0,0-7.216.646c-4.5,3.181-3.913,11.413,1.425,13.529,5.766,2.083,11.949-3.289,10.709-8.853A7.716,7.716,0,0,0,31.917,85.931Z"/><path class="e" d="M104.5,239.459a6.074,6.074,0,0,1,5.678.509c3.536,2.5,3.078,8.979-1.122,10.644-4.536,1.638-9.4-2.588-8.425-6.966A6.074,6.074,0,0,1,104.5,239.459Z"/><path class="b" d="M160.691,85.617a8.162,8.162,0,0,0-9.8,3.119,9.282,9.282,0,0,0-.4,8.634,7.69,7.69,0,0,0,7.675,4.443,9.239,9.239,0,0,0,7.892-6.126,7.755,7.755,0,0,0-.5-5.987,8.96,8.96,0,0,0-4.869-4.083,2.408,2.408,0,0,0-2.952,1.676,2.47,2.47,0,0,0,1.676,2.952c-.62-.247-.1-.042.02.019.145.071.288.148.428.229s.276.168.409.259l.132.092q.312.23-.1-.081c.1.191.432.39.58.549l.107.118q.249.3-.074-.116c.123.052.284.415.35.529a2.4,2.4,0,0,1,.222.422c-.013.014-.2-.581-.058-.13a4.153,4.153,0,0,0,.237.916l-.046-.344c.011.1.018.2.023.293.008.145.009.29,0,.436,0,.1-.013.191-.018.288q-.041.391.031-.212c-.016.095-.034.188-.055.281a4.2,4.2,0,0,0-.249.819c-.018-.343.2-.414.04-.114-.057.1-.107.213-.166.318a6.734,6.734,0,0,0-.473.723l.195-.258c-.061.074-.125.148-.189.22q-.171.189-.356.366c-.088.084-.182.162-.27.245-.377.358.456-.3.025-.012-.244.166-.486.329-.746.471-.108.059-.219.11-.328.167-.367.192-.1-.1.1-.038-.063-.02-.35.124-.42.146-.189.059-.381.109-.574.149s-.612.014.048.01c-.1,0-.2.02-.3.027a8.634,8.634,0,0,1-.91-.01c-.54-.023.555.132.026,0-.154-.038-.308-.065-.461-.107-.1-.028-.2-.066-.306-.093-.486-.127.531.275-.048-.024-.22-.113-.419-.29-.64-.393.5.234.305.248.1.069-.061-.054-.121-.109-.179-.166-.181-.174-.6-.816-.188-.151-.139-.225-.3-.431-.43-.663s-.309-.89-.1-.142c-.066-.236-.17-.462-.235-.7q-.083-.3-.137-.6c-.042-.228.017-.546.014.148,0-.163-.03-.331-.037-.494q-.012-.31,0-.62c.006-.124.019-.247.027-.371.034-.477-.114.616-.019.148.05-.242.1-.482.165-.72s.439-.922.049-.231c.14-.248.246-.51.4-.753a2.388,2.388,0,0,0,.2-.3c-.078.19-.355.428-.073.105.186-.215.432-.384.613-.6-.368.436-.29.211-.043.049.148-.1.3-.177.454-.266.5-.287-.484.131.063-.035.221-.067.437-.142.664-.192l.169-.035q.4-.068-.125.01c.094-.068.393-.028.52-.03.174,0,.349,0,.523.012.116.008.232.018.348.032q-.522-.074-.118,0a11.854,11.854,0,0,1,1.184.341,2.411,2.411,0,0,0,2.952-1.676A2.464,2.464,0,0,0,160.691,85.617Z"/><path class="b" d="M141.433,217.654a8.74,8.74,0,0,1,6.333-.23,6.446,6.446,0,0,1,1.04.527,7.758,7.758,0,0,1,.679.458c-.413-.315.125.124.168.163a10.777,10.777,0,0,1,.867.908c.063.072.255.363.007.008.159.228.315.456.458.695a10.049,10.049,0,0,1,.573,1.111c-.2-.453.159.48.2.6a11.511,11.511,0,0,1,.305,1.227c.015.078.108.771.043.2.028.246.05.492.063.739q.033.585.01,1.169c-.009.212-.031.424-.042.636-.035.688.1-.473-.022.2a12.8,12.8,0,0,1-.674,2.437c.179-.45-.206.405-.291.563a12.193,12.193,0,0,1-.665,1.058c-.373.544.317-.308-.14.168-.144.151-.277.311-.424.459-.1.1-.2.2-.3.291-.073.068-.746.582-.329.29a9.6,9.6,0,0,1-1.095.673c-.048.025-.7.3-.229.123-.172.065-.35.121-.525.174a6.99,6.99,0,0,1-2.894.344,3.716,3.716,0,0,1-1.013-.13,12.188,12.188,0,0,1-1.466-.417c-.76-.262.18.095-.249-.091-.193-.084-.382-.178-.569-.274a11.448,11.448,0,0,1-1.5-.925,12.184,12.184,0,0,1-1.7-1.672c.259.317-.23-.318-.222-.306q-.21-.3-.4-.624c-.105-.177-.2-.356-.3-.538-.04-.078-.348-.775-.213-.433a6.3,6.3,0,0,1-.565-2.719,6.583,6.583,0,0,1,.513-2.622,8.429,8.429,0,0,1,4.571-4.248,2.474,2.474,0,0,0,1.676-2.952,2.417,2.417,0,0,0-2.952-1.677,14.178,14.178,0,0,0-6.773,5.269,11.446,11.446,0,0,0-1.658,8.1c.792,5.15,5.184,9.437,10.158,10.673a11.846,11.846,0,0,0,13.146-5.118,14.234,14.234,0,0,0,.714-12.979c-2.626-5.993-9.665-8.141-15.587-5.943a2.467,2.467,0,0,0-1.677,2.953A2.42,2.42,0,0,0,141.433,217.654Z"/><path class="b" d="M76.3,211.269a10.9,10.9,0,0,1,1.427-.431c.01,0,.808-.145.338-.08a7.264,7.264,0,0,1,.738-.057,8.479,8.479,0,0,1,1.224.038c-.476-.052.3.064.325.069a9.118,9.118,0,0,1,.936.272c.648.219-.268-.2.324.149.142.083.289.156.431.242.193.117.377.245.559.377-.5-.361-.037-.013.052.068a9.323,9.323,0,0,1,.714.747c.1.113.192.343-.06-.079.117.195.259.376.376.572a9.892,9.892,0,0,1,.473.915c-.282-.606.075.254.119.4a9.488,9.488,0,0,1,.251,1.01c.025.135.083.718.02.051.019.2.041.405.052.609.018.321.021.641.008.962-.007.175-.026.349-.034.524-.031.6.109-.532,0,.055a12.147,12.147,0,0,1-.555,2.006c.229-.612-.109.2-.2.362-.165.3-.355.586-.547.871-.322.477.35-.362-.049.053-.119.123-.228.256-.349.378-.081.081-.164.161-.248.239-.108.1-.714.52-.185.172a10.29,10.29,0,0,1-.9.555c-.113.058-.652.25-.087.058-.144.049-.286.1-.432.143-.214.066-.431.122-.649.17-.068.015-.783.121-.227.057a8.419,8.419,0,0,1-1.393.041c-.177-.009-.352-.024-.528-.043.573.063-.112-.032-.194-.049-.412-.087-.8-.222-1.207-.343-.629-.189.258.131-.1-.032-.158-.071-.315-.146-.469-.226a11.109,11.109,0,0,1-1.236-.761c-.542-.375.313.318-.163-.137-.1-.095-.207-.182-.307-.275a11.55,11.55,0,0,1-.844-.9c.35.406-.071-.1-.116-.166-.115-.168-.225-.339-.328-.514q-.129-.218-.245-.443c-.055-.106-.323-.771-.133-.255a13.771,13.771,0,0,1-.393-1.353c-.161-.622,0,.482-.028-.162-.01-.2-.028-.406-.029-.611s.016-.411.022-.617q.043-.422-.01.017c.023-.139.049-.278.08-.416.05-.223.11-.444.181-.661.014-.043.289-.682.091-.267a7.3,7.3,0,0,1,.807-1.341c-.3.384.177-.178.2-.2q.231-.248.479-.476c.022-.02.586-.5.209-.2a7.838,7.838,0,0,1,.752-.512c.194-.119.392-.232.595-.337.077-.041.888-.4.467-.229a2.473,2.473,0,0,0,1.676-2.952,2.416,2.416,0,0,0-2.952-1.676,12.155,12.155,0,0,0-5.828,4.532,9.887,9.887,0,0,0-1.408,6.993c.654,4.375,4.448,8.037,8.658,9.083a10.187,10.187,0,0,0,11.3-4.409,12.153,12.153,0,0,0,.588-11.113c-2.238-5.092-8.271-6.957-13.311-5.086a2.465,2.465,0,0,0-1.676,2.952A2.419,2.419,0,0,0,76.3,211.269Z"/><path class="b" d="M38.651,229.792a7.648,7.648,0,0,1,1.012-.305c.169-.038.632-.243.054-.032a1.982,1.982,0,0,1,.523-.041c.2-.007.716-.083.868.027l-.295-.04c.114.018.227.04.34.065.226.05.442.125.663.192.537.163-.414-.265.063.035.1.062.206.112.3.172a2.9,2.9,0,0,0,.4.267c-.439-.163-.339-.274-.105-.061a6.66,6.66,0,0,1,.506.53c.139.156.071.252-.152-.2.07.141.186.27.267.406.126.21.216.437.335.649-.376-.666-.056-.113.014.114a6.511,6.511,0,0,1,.178.716c.04.211.01.577-.011-.15.005.144.03.288.038.432q.018.341,0,.682c0,.124-.017.247-.024.371-.028.478.112-.617.023-.147-.094.492-.259.944-.394,1.423.207-.735.05-.129-.069.089s-.252.416-.388.618c-.258.383.392-.441.075-.1-.084.088-.162.181-.248.268-.057.058-.116.114-.175.169s-.122.109-.184.162q-.286.231.194-.149c-.221.1-.42.28-.64.393l-.113.057q-.341.158.219-.086a1.84,1.84,0,0,0-.307.1c-.151.046-.3.086-.46.12l-.153.031c-.264.045-.2.04.178-.015a1.771,1.771,0,0,0-.458.033c-.177.007-.353.005-.53,0a1.5,1.5,0,0,0-.374-.031l.342.045c-.1-.016-.2-.034-.293-.054-.293-.062-.571-.157-.856-.244-.48-.145.378.208.094.048-.107-.06-.224-.1-.333-.16a8.547,8.547,0,0,1-.876-.54c-.431-.291.4.37.025.012-.07-.067-.146-.128-.217-.195-.133-.124-.44-.595-.6-.636l.2.258c-.058-.077-.115-.155-.169-.235-.082-.118-.16-.24-.233-.364-.061-.1-.119-.208-.174-.314-.033-.064-.065-.128-.1-.193q-.158-.348.073.179a4.613,4.613,0,0,0-.279-.959c-.127-.5.025.588.005.071-.006-.145-.02-.288-.02-.433s.011-.291.015-.437q.041-.393-.032.2c.016-.1.035-.2.057-.3.035-.158.078-.315.128-.469.025-.076.052-.152.081-.227q.1-.254-.087.205a3.349,3.349,0,0,1,.573-.951l-.179.237c.069-.082.139-.161.211-.239q.164-.176.34-.338l.119-.107q.3-.248-.113.072a2.05,2.05,0,0,1,.533-.363q.207-.126.422-.239c.131-.069.817-.351.164-.092a2.461,2.461,0,0,0,1.677-2.952,2.426,2.426,0,0,0-2.953-1.676,9.432,9.432,0,0,0-4.549,3.534,7.725,7.725,0,0,0-1.069,5.5,8.977,8.977,0,0,0,6.626,6.927,7.937,7.937,0,0,0,8.8-3.447,9.338,9.338,0,0,0,.417-8.583c-1.71-3.873-6.383-5.353-10.226-3.927a2.453,2.453,0,0,0-1.676,2.952A2.427,2.427,0,0,0,38.651,229.792Z"/><path class="b" d="M32.555,83.617A9.731,9.731,0,0,0,20.83,87.282,11.133,11.133,0,0,0,20.323,97.6a9.149,9.149,0,0,0,9.193,5.324,11.062,11.062,0,0,0,9.4-7.308,9.2,9.2,0,0,0-.564-7.109,10.71,10.71,0,0,0-5.8-4.89A2.408,2.408,0,0,0,29.6,85.293a2.471,2.471,0,0,0,1.676,2.952c-.513-.2.113.055.182.089q.276.136.543.292c.177.1.351.213.52.328.07.048.564.471.167.117.254.226.506.447.738.7.052.055.476.572.143.134a6.534,6.534,0,0,1,.446.673c.1.175.191.355.282.537-.043-.086-.152-.441-.009-.011a9.169,9.169,0,0,1,.3,1.164c-.118-.611-.013-.021-.006.108.009.185.011.37,0,.554,0,.123-.016.244-.022.366q-.044.412.016-.1c-.02.119-.043.238-.07.357A8.986,8.986,0,0,1,34.2,94.6c.2-.58-.149.278-.225.414a8.3,8.3,0,0,1-.6.919c.36-.478-.025.007-.094.083q-.218.242-.452.465c-.112.107-.232.206-.343.313-.441.422.406-.259-.1.086a11.121,11.121,0,0,1-.949.6c-.132.072-1,.423-.448.23a10.247,10.247,0,0,1-1.264.375c-.118.025-.734.09-.111.036-.127.011-.253.025-.38.034a10.893,10.893,0,0,1-1.157-.013c-.63-.028.478.132-.14-.023-.2-.048-.392-.082-.586-.136-.13-.036-.259-.084-.389-.118q-.429-.154.076.046c-.1-.045-.2-.092-.292-.142s-.825-.4-.813-.5c-.01.078.4.338,0-.015-.078-.068-.154-.138-.229-.21-.111-.108-.219-.219-.322-.334-.373-.412-.048.018-.018.009-.077.022-.5-.754-.547-.841-.063-.113-.123-.227-.18-.343-.253-.513,0,0-.011,0s-.278-.813-.3-.887c-.07-.252-.128-.508-.174-.765-.1-.543.088-.065,0,.015a3.242,3.242,0,0,0-.047-.629q-.017-.393,0-.788c.008-.157.024-.314.035-.471.037-.555-.115.559,0,.015.064-.307.122-.612.209-.915.036-.124.075-.248.117-.371.025-.074.051-.147.078-.22q.142-.363-.067.142s.458-.879.506-.956c.017-.027.248-.391.259-.384-.007,0-.381.45.009,0,.081-.094.671-.8.78-.76l-.238.181c.1-.077.207-.15.314-.22.189-.124.384-.225.578-.338.573-.335-.394.092.235-.111.28-.09.556-.18.843-.244.072-.016.774-.105.23-.054.22-.021.44-.035.661-.039s.443,0,.664.016c.148.009.3.023.443.04q-.4-.053.023.018a14.513,14.513,0,0,1,1.5.434,2.413,2.413,0,0,0,2.953-1.676A2.465,2.465,0,0,0,32.555,83.617Z"/><path class="b" d="M105.135,241.774a7.744,7.744,0,0,1,1.011-.306c.169-.038.633-.243.055-.032a1.93,1.93,0,0,1,.522-.04c.2-.007.717-.083.869.027l-.3-.041c.114.018.227.04.339.065.227.051.442.125.664.192.537.164-.414-.265.063.036.1.061.206.111.305.171a2.9,2.9,0,0,0,.4.268c-.438-.164-.339-.275-.1-.061a6.83,6.83,0,0,1,.506.529c.138.156.07.252-.152-.2.07.14.186.27.267.405.125.21.215.437.335.649-.377-.666-.056-.112.014.114a7,7,0,0,1,.178.716c.04.211.01.578-.011-.15,0,.144.029.289.037.432.013.227.015.455.006.682,0,.124-.018.247-.025.371-.028.478.113-.617.023-.146-.093.491-.258.943-.393,1.422.207-.734.049-.128-.07.09s-.251.415-.387.617c-.259.384.392-.44.074-.1-.083.089-.161.181-.247.268-.057.058-.116.115-.176.17s-.121.109-.184.161q-.285.233.2-.148c-.221.1-.421.279-.64.393l-.114.057q-.339.156.219-.086a1.83,1.83,0,0,0-.306.1c-.152.046-.3.086-.46.12l-.154.032q-.395.066.178-.016a1.766,1.766,0,0,0-.457.034c-.177.006-.354,0-.53,0a1.506,1.506,0,0,0-.374-.03l.341.045c-.1-.016-.2-.035-.293-.055-.292-.062-.57-.157-.856-.244-.48-.145.379.208.094.048-.106-.06-.224-.1-.332-.16a8.662,8.662,0,0,1-.877-.539c-.43-.292.4.37.026.012-.07-.067-.147-.129-.218-.2-.132-.124-.439-.595-.6-.636l.2.258c-.058-.077-.114-.155-.169-.234-.081-.119-.159-.24-.233-.364-.061-.1-.118-.208-.173-.315q-.051-.094-.1-.192-.157-.349.072.179a4.536,4.536,0,0,0-.279-.959c-.126-.5.026.587,0,.07,0-.145-.019-.288-.02-.433s.012-.291.016-.437q.039-.393-.033.2c.017-.1.036-.2.057-.3.036-.158.078-.314.129-.468.024-.077.051-.153.08-.228q.1-.253-.086.206a3.349,3.349,0,0,1,.572-.952l-.178.237c.068-.082.138-.161.211-.239.108-.117.222-.229.339-.337l.119-.107q.3-.247-.112.071a2.022,2.022,0,0,1,.533-.362c.137-.085.278-.165.421-.24s.817-.351.165-.091a2.461,2.461,0,0,0,1.676-2.953,2.425,2.425,0,0,0-2.952-1.676,9.433,9.433,0,0,0-4.549,3.534,7.721,7.721,0,0,0-1.069,5.5,8.975,8.975,0,0,0,6.626,6.927,7.939,7.939,0,0,0,8.8-3.446,9.34,9.34,0,0,0,.416-8.584c-1.709-3.873-6.383-5.353-10.225-3.927a2.4,2.4,0,0,0,1.276,4.629Z"/></svg>